<?xml version="1.0" encoding="UTF-8"?>
<svg id="Layer_1" data-name="Layer 1" xmlns="http://www.w3.org/2000/svg" viewBox="0 0 235.7 200">
  <defs>
    <style>
      .unique-cls-1 {
        stroke: #fff;
      }

      .unique-cls-1, .unique-cls-2 {
        fill: none;
        stroke-linecap: round;
        stroke-linejoin: round;
        stroke-width: 12px;
      }

      .unique-cls-3 {
        fill: #00C7BE;
        stroke-width: 0px;
      }

      .unique-cls-2 {
        stroke: #00C7BE;
      }
    </style>
  </defs>
  <path class="unique-cls-3" d="M10.7,3.3h48.7c3.1,0,5.6,3.9,5.6,8.7v40.8c0,4.8-2.5,8.7-5.6,8.7H10.7c-3.1,0-5.6-3.9-5.6-8.7V12.1c0-4.8,2.5-8.7,5.6-8.7Z"/>
  <polyline class="unique-cls-1" points="15.8 31.2 28.7 44 54.3 18.4"/>
  <path class="unique-cls-1" d="M89.8,28.3"/>
  <line class="unique-cls-2" x1="173.4" y1="11.2" x2="85.3" y2="11.2"/>
  <line class="unique-cls-2" x1="176.5" y1="32.5" x2="88.4" y2="32.5"/>
  <line class="unique-cls-2" x1="179.6" y1="53.8" x2="91.5" y2="53.8"/>
  <path class="unique-cls-3" d="M31.1,69.6h48.7c3.1,0,5.6,3.9,5.6,8.7v40.8c0,4.8-2.5,8.7-5.6,8.7H31.1c-3.1,0-5.6-3.9-5.6-8.7v-40.8c0-4.8,2.5-8.7,5.6-8.7Z"/>
  <polyline class="unique-cls-1" points="36.3 97.4 49.1 110.2 74.7 84.6"/>
  <path class="unique-cls-1" d="M110.2,94.5"/>
  <line class="unique-cls-2" x1="193.8" y1="77.4" x2="105.7" y2="77.4"/>
  <line class="unique-cls-2" x1="196.9" y1="98.7" x2="108.8" y2="98.7"/>
  <line class="unique-cls-2" x1="200" y1="120" x2="111.9" y2="120"/>
  <path class="unique-cls-3" d="M53.9,137.1h48.7c3.1,0,5.6,3.9,5.6,8.7v40.8c0,4.8-2.5,8.7-5.6,8.7h-48.7c-3.1,0-5.6-3.9-5.6-8.7v-40.8c0-4.8,2.5-8.7,5.6-8.7Z"/>
  <polyline class="unique-cls-1" points="59.1 164.9 71.9 177.7 97.5 152.1"/>
  <path class="unique-cls-1" d="M133,162"/>
  <line class="unique-cls-2" x1="216.6" y1="144.9" x2="128.5" y2="144.9"/>
  <line class="unique-cls-2" x1="219.7" y1="166.2" x2="131.6" y2="166.2"/>
  <line class="unique-cls-2" x1="222.8" y1="187.5" x2="134.7" y2="187.5"/>
</svg>