<?xml version="1.0" encoding="UTF-8"?>
<svg id="Layer_1" data-name="Layer 1" xmlns="http://www.w3.org/2000/svg" xmlns:xlink="http://www.w3.org/1999/xlink" version="1.1" viewBox="0 0 46 34">
  <defs>
    <style>
      .cls-1 {
        clip-path: url(#clippath);
      }

      .cls-2, .cls-3, .cls-4, .cls-5 {
        fill: none;
      }

      .cls-2, .cls-6 {
        stroke-width: 0px;
      }

      .cls-3, .cls-4 {
        stroke: #00c7be;
        stroke-linecap: round;
        stroke-linejoin: round;
      }

      .cls-3, .cls-5 {
        stroke-width: 2px;
      }

      .cls-4 {
        stroke-width: 1.6px;
      }

      .cls-5 {
        stroke: #bce5e3;
      }

      .cls-6 {
        fill: #00c7be;
      }
    </style>
    <clipPath id="clippath">
      <rect class="cls-2" width="46" height="34"/>
    </clipPath>
  </defs>
  <g class="cls-1">
    <g>
      <path class="cls-5" d="M40,11l-5.5,5M25,10l3,5.5M24.5,29.5l3.5-5.5"/>
      <path class="cls-6" d="M3.8,26V2.7h7.9c1.8,0,3.3.3,4.5.9,1.2.6,2,1.5,2.6,2.5s.8,2.3.8,3.7-.3,2.6-.8,3.6c-.6,1.1-1.4,1.9-2.6,2.5-1.2.6-2.6.9-4.4.9h-6.4v-2.5h6.3c1.2,0,2.2-.2,3-.5.8-.4,1.3-.9,1.7-1.5.3-.7.5-1.5.5-2.4s-.2-1.7-.5-2.4c-.3-.7-.9-1.2-1.7-1.6-.8-.4-1.8-.6-3-.6h-5v20.8h-2.8ZM14.8,15.5l5.7,10.5h-3.3l-5.6-10.5h3.2Z"/>
      <path class="cls-3" d="M30.5,24.1c2.5,0,4.6-2.1,4.6-4.6s-2.1-4.6-4.6-4.6-4.6,2.1-4.6,4.6,2.1,4.6,4.6,4.6Z"/>
      <path class="cls-4" d="M40.5,11.8c.7,0,1.2-.6,1.2-1.2s-.6-1.2-1.2-1.2-1.2.6-1.2,1.2.6,1.2,1.2,1.2Z"/>
      <path class="cls-4" d="M24.5,10.8c.7,0,1.2-.6,1.2-1.2s-.6-1.2-1.2-1.2-1.2.6-1.2,1.2.6,1.2,1.2,1.2Z"/>
      <path class="cls-4" d="M23.5,31.8c.7,0,1.2-.6,1.2-1.2s-.6-1.2-1.2-1.2-1.2.6-1.2,1.2.6,1.2,1.2,1.2Z"/>
    </g>
  </g>
</svg>